<svg id="Layer_1" data-name="Layer 1" xmlns="http://www.w3.org/2000/svg" viewBox="0 0 258.07 57.52"><defs><style>.cls-1,.cls-2{fill:#fff;}.cls-2{stroke:#000;stroke-miterlimit:10;stroke-width:0.37px;}</style></defs><path class="cls-1" d="M103.11,21.7c-2.27-2.31-4.65-4.63-6.88-7.08s-2-5.29.27-7.18,4.72-1.53,6.6,1Z" transform="translate(-0.97 -6.24)"/><path class="cls-1" d="M103.11,21.7c2.2-2.25,4.51-4.47,6.64-6.85a8,8,0,0,0,1.62-3.14c.55-1.91-.62-3.9-2.67-5a4.08,4.08,0,0,0-4.9.85c-.25.26-.46.57-.7.85Z" transform="translate(-0.97 -6.24)"/><polygon class="cls-1" points="235.63 52.38 237.31 52.38 237 53.9 235.38 53.9 235.63 52.38"/><polygon class="cls-1" points="252.22 40.89 253.75 40.89 252.45 48.37 253.38 48.37 256.3 44.88 258.07 44.88 254.54 49.07 256.77 53.9 254.82 53.9 253.05 49.76 252.22 49.76 251.19 53.9 249.71 53.9 252.22 40.89"/><path class="cls-1" d="M247.9,51.37c-1.48-1.24-3.71.62-3.71.62v-.93h-1.31l-2.47,12.7H242l.86-4.38c3.57,2.8,5.36-.92,5.36-.92C250.87,53.2,247.9,51.37,247.9,51.37Zm-3,7.78a2,2,0,0,1-1.8-1.06l.87-4.67s3.71-3.38,3.74,1.67C247.68,55.09,247.6,59,244.87,59.15Z" transform="translate(-0.97 -6.24)"/><path class="cls-1" d="M165.79,60.13h-3.3c-.11-1.53-.22-3-.33-4.5l-.27-.21a1.5,1.5,0,0,1-.08.39c-4,6.62-17.25,7.87-21.43-2.47A23.41,23.41,0,0,1,138.82,47a27.3,27.3,0,0,1,1.54-13.54c1.55-3.72,4-6.6,8-7.66a12.06,12.06,0,0,1,13.28,4.79l.35.46v-20h3.76Zm-3.72-16.69c0-2-.13-4.07,0-6.09a7.1,7.1,0,0,0-1.62-4.76c-3.49-5.18-13.45-6-16.5,1.93a26.71,26.71,0,0,0-1.52,11,17.39,17.39,0,0,0,1.77,7.39,7.87,7.87,0,0,0,4.67,4.22c3.91,1.21,9.72.79,12.75-4.89a3.58,3.58,0,0,0,.4-1.57C162.09,48.25,162.07,45.85,162.07,43.44Z" transform="translate(-0.97 -6.24)"/><path class="cls-1" d="M198.88,53.9l1.63,2.62a22.61,22.61,0,0,1-2.21,1.75C189,64,175.64,60.74,174,46.47a22.72,22.72,0,0,1,1.12-11.29c2-4.82,5.17-8.48,10.5-9.47,7.92-1.47,14.49,2.8,15.68,11.16.29,2.05.23,4.16.33,6.36H177.78c-.56,5,1.72,10.65,5.82,13.16C186.77,58.31,194.57,58.31,198.88,53.9Zm-1-13.95a29.12,29.12,0,0,0-.24-3c-.71-3.88-2.65-6.81-6.62-8a9.07,9.07,0,0,0-10.19,3.35,17.91,17.91,0,0,0-2.18,4.13,20.74,20.74,0,0,0-.79,3.43Z" transform="translate(-0.97 -6.24)"/><path class="cls-1" d="M232,53.88l1.6,2.58a13.78,13.78,0,0,1-1.13,1,16.07,16.07,0,0,1-15.91,2.37c-5.52-2.07-8.4-6.59-9.26-12.29a23.63,23.63,0,0,1,.89-12.22c1.84-4.76,5-8.41,10.11-9.55,8.06-1.77,15.39,2.54,16.27,12.05.16,1.74,0,3.5,0,5.35H210.93c-.62,5.14,1.83,10.62,5.63,13.06C219.83,58.38,227.72,58.3,232,53.88ZM231,40a29,29,0,0,0-.3-3.32c-.8-3.8-2.81-6.65-6.74-7.63a9.13,9.13,0,0,0-10,3.38,12.7,12.7,0,0,0-2.48,5.29c-.16.74-.26,1.48-.39,2.28Z" transform="translate(-0.97 -6.24)"/><path class="cls-1" d="M115.27,22.59a18,18,0,1,0,13.58,29.93v7.6h4.36l.11-19.48A18.05,18.05,0,0,0,115.27,22.59ZM115.13,55a14.2,14.2,0,1,1,14.2-14.2A14.2,14.2,0,0,1,115.13,55Z" transform="translate(-0.97 -6.24)"/><path class="cls-1" d="M33.14,27.35H29.68c-.11-.83-.16-1.63-.34-2.4a9.52,9.52,0,0,0-6.08-7,16,16,0,0,0-12,.13,9.2,9.2,0,0,0-2.49,1.55,7.43,7.43,0,0,0,.5,12.05c2.58,1.84,5.59,2.65,8.57,3.57,2.67.83,5.32,1.74,7.92,2.76a17.83,17.83,0,0,1,3.33,2,10.94,10.94,0,0,1-.63,18.23,21,21,0,0,1-12.81,2.63A19.41,19.41,0,0,1,5.53,57.16C2.18,54.73.87,51.35,1,47.23H4.41c.12.85.2,1.68.37,2.49A7.84,7.84,0,0,0,8.45,55a17.45,17.45,0,0,0,16,1.34c4.33-1.68,6.19-5.47,5.11-9.64a8.19,8.19,0,0,0-4.16-5.07,35.14,35.14,0,0,0-8.54-3.18A32.77,32.77,0,0,1,6.67,34.16C1,30.35,1.39,23.05,4.09,19.42a12.89,12.89,0,0,1,6.07-4.51,19.69,19.69,0,0,1,14.54,0c5,2.06,8.12,5.77,8.44,11.41C33.15,26.65,33.14,27,33.14,27.35Z" transform="translate(-0.97 -6.24)"/><path class="cls-1" d="M67.31,60.12H63.6V59c0-6.69,0-13.37,0-20a20.89,20.89,0,0,0-.69-5.1,6.7,6.7,0,0,0-6.2-5.12,10.33,10.33,0,0,0-11.26,6.92,3.81,3.81,0,0,0-.18,1.26q0,11,0,22v1.18H41.5v-49h3.71v20.6c.26-.35.39-.52.51-.7a12.68,12.68,0,0,1,15.41-4.69c3.46,1.46,5.12,4.31,5.77,7.82a27.22,27.22,0,0,1,.44,4.77c0,6.78,0,13.55,0,20.33C67.36,59.51,67.33,59.78,67.31,60.12Z" transform="translate(-0.97 -6.24)"/><path class="cls-2" d="M72.84,40.39" transform="translate(-0.97 -6.24)"/><path class="cls-1" d="M105.53,51.23a14.75,14.75,0,0,1-2.37-2.82h0a13.51,13.51,0,0,0,2.37-7.84,14.22,14.22,0,1,0-4.84,10.71l2.37,2.6a18.12,18.12,0,0,1-25.51-1.31v7.36H72.84V40.39a18.12,18.12,0,0,1,36.24,0,17.56,17.56,0,0,1-3.55,10.84" transform="translate(-0.97 -6.24)"/></svg>
